<svg width="1296" height="900" viewBox="0 0 1296 900" fill="none" xmlns="http://www.w3.org/2000/svg">
<g clip-path="url(#clip0_1_54)">
<path d="M118.8 838.8C118.8 837 120.6 835.2 122.4 835.2C124.2 835.2 126 837 126 838.8V873L162 836.1C162.9 835.2 163.8 835.2 164.7 835.2C166.5 835.2 168.3 837 168.3 838.8C168.3 839.7 168.3 840.6 167.4 841.5L144.9 864L168.3 893.7C169.2 894.6 169.2 895.5 169.2 896.4C169.2 898.2 167.4 900 165.6 900C164.7 900 163.8 899.1 162.9 898.2L139.5 868.5L126 882V895.5C126 897.3 124.2 899.1 122.4 899.1C120.6 899.1 118.8 897.3 118.8 895.5V838.8Z" fill="#868686"/>
<path d="M191.7 827.1C191.7 829.8 189.9 831.6 187.2 831.6C184.5 831.6 182.7 829.8 182.7 827.1V826.2C182.7 823.5 184.5 821.7 187.2 821.7C189.9 821.7 191.7 823.5 191.7 826.2V827.1ZM183.6 838.8C183.6 837 185.4 835.2 187.2 835.2C189 835.2 190.8 837 190.8 838.8V895.5C190.8 897.3 189 899.1 187.2 899.1C185.4 899.1 183.6 897.3 183.6 895.5V838.8Z" fill="#868686"/>
<path d="M209.7 839.7C209.7 837.9 211.5 836.1 213.3 836.1H236.7C244.8 836.1 250.2 838.8 254.7 842.4C257.4 845.1 259.2 849.6 259.2 855C259.2 865.8 252 871.2 242.1 873L257.4 892.8C258.3 893.7 258.3 894.6 258.3 895.5C258.3 897.3 256.5 899.1 254.7 899.1C252.9 899.1 252 898.2 251.1 897.3L233.1 873.9H215.1V895.5C215.1 897.3 213.3 899.1 211.5 899.1C209.7 899.1 207.9 897.3 207.9 895.5V839.7H209.7ZM235.8 868.5C244.8 868.5 252 864 252 855.9C252 847.8 245.7 843.3 235.8 843.3H216V868.5H235.8Z" fill="#868686"/>
<path d="M270 894.6L295.2 838.8C296.1 837 297 835.2 299.7 835.2C301.5 835.2 303.3 836.1 304.2 838.8L329.4 894.6C329.4 895.5 329.4 895.5 329.4 896.4C329.4 898.2 327.6 900 325.8 900C324 900 323.1 899.1 322.2 897.3L317.7 882H283.5L277.2 896.4C276.3 898.2 275.4 899.1 273.6 899.1C271.8 899.1 270 897.3 270 895.5C270 895.5 270 895.5 270 894.6ZM315 875.7L300.6 843.3L286.2 875.7H315Z" fill="#868686"/>
<path d="M344.7 838.8C344.7 837 346.5 835.2 348.3 835.2C350.1 835.2 351.9 837 351.9 838.8V891.9H384.3C386.1 891.9 387.9 893.7 387.9 895.5C387.9 897.3 386.1 899.1 384.3 899.1H348.3C346.5 899.1 344.7 897.3 344.7 895.5V838.8Z" fill="#868686"/>
<path d="M400.5 838.8C400.5 837 402.3 835.2 404.1 835.2C405.9 835.2 407.7 837 407.7 838.8V895.5C407.7 897.3 405.9 899.1 404.1 899.1C402.3 899.1 400.5 897.3 400.5 895.5V838.8Z" fill="#868686"/>
<path d="M425.7 838.8C425.7 837 427.5 835.2 429.3 835.2C431.1 835.2 432.9 837 432.9 838.8V873L468.9 836.1C469.8 835.2 470.7 835.2 471.6 835.2C473.4 835.2 475.2 837 475.2 838.8C475.2 839.7 475.2 840.6 474.3 841.5L451.8 864L475.2 893.7C476.1 894.6 476.1 895.5 476.1 896.4C476.1 898.2 474.3 900 472.5 900C471.6 900 470.7 899.1 469.8 898.2L446.4 868.5L432.9 882V895.5C432.9 897.3 431.1 899.1 429.3 899.1C427.5 899.1 425.7 897.3 425.7 895.5V838.8Z" fill="#868686"/>
<path d="M536.4 873.9L513 841.5C513 840.6 512.1 839.7 512.1 838.8C512.1 837 513.9 835.2 515.7 835.2C517.5 835.2 518.4 836.1 519.3 837L540 866.7L560.7 837C561.6 836.1 562.5 835.2 564.3 835.2C566.1 835.2 567.9 837 567.9 838.8C567.9 839.7 567 840.6 567 841.5L543.6 873.9V895.5C543.6 897.3 541.8 899.1 540 899.1C538.2 899.1 536.4 897.3 536.4 895.5V873.9Z" fill="#868686"/>
<path d="M567 894.6L592.2 838.8C593.1 837 594 835.2 596.7 835.2C598.5 835.2 600.3 836.1 601.2 838.8L626.4 894.6C626.4 895.5 626.4 895.5 626.4 896.4C626.4 898.2 624.6 900 622.8 900C621 900 620.1 899.1 619.2 897.3L614.7 882H580.5L574.2 896.4C573.3 898.2 572.4 899.1 570.6 899.1C568.8 899.1 567 897.3 567 895.5C567 895.5 567 895.5 567 894.6ZM612 875.7L597.6 843.3L583.2 875.7H612Z" fill="#868686"/>
<path d="M641.7 839.7C641.7 837.9 643.5 836.1 645.3 836.1H665.1C679.5 836.1 688.5 843.3 688.5 855.9C688.5 869.4 676.8 876.6 664.2 876.6H648.9V895.5C648.9 897.3 647.1 899.1 645.3 899.1C643.5 899.1 641.7 897.3 641.7 895.5V839.7ZM664.2 870.3C675 870.3 681.3 864.9 681.3 856.8C681.3 847.8 675 843.3 664.2 843.3H648V871.2H664.2V870.3Z" fill="#868686"/>
<path d="M702 838.8C702 837 703.8 835.2 705.6 835.2C707.4 835.2 709.2 837 709.2 838.8V895.5C709.2 897.3 707.4 899.1 705.6 899.1C703.8 899.1 702 897.3 702 895.5V838.8Z" fill="#868686"/>
<path d="M752.4 891.9C751.5 891 751.5 890.1 751.5 889.2C751.5 887.4 753.3 885.6 755.1 885.6C756 885.6 756.9 885.6 756.9 886.5C763.2 891.9 768.6 893.7 776.7 893.7C784.8 893.7 791.1 889.2 791.1 882.9C791.1 876.6 788.4 873.9 774.9 871.2C760.5 867.6 754.2 863.1 754.2 853.2C754.2 843.3 763.2 836.1 774.9 836.1C783 836.1 789.3 837.9 794.7 842.4C795.6 843.3 796.5 844.2 796.5 845.1C796.5 846.9 794.7 848.7 792.9 848.7C792 848.7 791.1 848.7 791.1 847.8C785.7 844.2 780.3 842.4 774.9 842.4C766.8 842.4 761.4 846.9 761.4 852.3C761.4 858.6 765 861.3 778.5 864.9C792.9 867.6 799.2 873 799.2 882.9C799.2 893.7 790.2 900.9 777.6 900.9C766.8 900 758.7 897.3 752.4 891.9Z" fill="#868686"/>
<path d="M819.9 827.1C819.9 829.8 818.1 831.6 815.4 831.6C812.7 831.6 810.9 829.8 810.9 827.1V826.2C810.9 823.5 812.7 821.7 815.4 821.7C818.1 821.7 819.9 823.5 819.9 826.2V827.1ZM812.7 838.8C812.7 837 814.5 835.2 816.3 835.2C818.1 835.2 819.9 837 819.9 838.8V895.5C819.9 897.3 818.1 899.1 816.3 899.1C814.5 899.1 812.7 897.3 812.7 895.5V838.8Z" fill="#868686"/>
<path d="M835.2 891.9C834.3 891 834.3 890.1 834.3 889.2C834.3 887.4 836.1 885.6 837.9 885.6C838.8 885.6 839.7 885.6 839.7 886.5C846 891.9 851.4 893.7 859.5 893.7C867.6 893.7 873.9 889.2 873.9 882.9C873.9 876.6 871.2 873.9 857.7 871.2C843.3 867.6 837 863.1 837 853.2C837 843.3 846 836.1 857.7 836.1C865.8 836.1 872.1 837.9 877.5 842.4C878.4 843.3 879.3 844.2 879.3 845.1C879.3 846.9 877.5 848.7 875.7 848.7C874.8 848.7 873.9 848.7 873.9 847.8C868.5 844.2 863.1 842.4 857.7 842.4C849.6 842.4 844.2 846.9 844.2 852.3C844.2 858.6 847.8 861.3 861.3 864.9C875.7 867.6 882 873 882 882.9C882 893.7 873 900.9 860.4 900.9C850.5 900 842.4 897.3 835.2 891.9Z" fill="#868686"/>
<path d="M910.8 842.4H892.8C891 842.4 889.2 840.6 889.2 838.8C889.2 837 891 835.2 892.8 835.2H936C937.8 835.2 939.6 837 939.6 838.8C939.6 840.6 937.8 842.4 936 842.4H918V895.5C918 897.3 916.2 899.1 914.4 899.1C912.6 899.1 910.8 897.3 910.8 895.5V842.4Z" fill="#868686"/>
<path d="M952.2 895.5V839.7C952.2 837.9 954 836.1 955.8 836.1H994.5C996.3 836.1 998.1 837.9 998.1 839.7C998.1 841.5 996.3 843.3 994.5 843.3H959.4V864H990.9C992.7 864 994.5 865.8 994.5 867.6C994.5 869.4 992.7 871.2 990.9 871.2H959.4V893.7H995.4C997.2 893.7 999 895.5 999 897.3C999 899.1 997.2 900.9 995.4 900.9H955.8C953.1 899.1 952.2 897.3 952.2 895.5Z" fill="#868686"/>
<path d="M1011.6 839.7C1011.6 837.9 1013.4 836.1 1015.2 836.1H1016.1C1017.9 836.1 1018.8 837 1019.7 837.9L1042.2 872.1L1064.7 837.9C1065.6 837 1066.5 836.1 1068.3 836.1H1069.2C1071 836.1 1072.8 837.9 1072.8 839.7V896.4C1072.8 898.2 1071 900 1069.2 900C1067.4 900 1065.6 898.2 1065.6 896.4V849.6L1045.8 879.3C1044.9 880.2 1044 881.1 1043.1 881.1C1042.2 881.1 1041.3 880.2 1040.4 879.3L1020.6 849.6V896.4C1020.6 898.2 1018.8 900 1017 900C1015.2 900 1013.4 898.2 1013.4 896.4V839.7H1011.6Z" fill="#868686"/>
<path d="M1089.9 838.8C1089.9 837 1091.7 835.2 1093.5 835.2C1095.3 835.2 1097.1 837 1097.1 838.8V891.9H1129.5C1131.3 891.9 1133.1 893.7 1133.1 895.5C1133.1 897.3 1131.3 899.1 1129.5 899.1H1093.5C1091.7 899.1 1089.9 897.3 1089.9 895.5V838.8Z" fill="#868686"/>
<path d="M1144.8 895.5V839.7C1144.8 837.9 1146.6 836.1 1148.4 836.1H1187.1C1188.9 836.1 1190.7 837.9 1190.7 839.7C1190.7 841.5 1188.9 843.3 1187.1 843.3H1152V864H1183.5C1185.3 864 1187.1 865.8 1187.1 867.6C1187.1 869.4 1185.3 871.2 1183.5 871.2H1152V893.7H1188C1189.8 893.7 1191.6 895.5 1191.6 897.3C1191.6 899.1 1189.8 900.9 1188 900.9H1148.4C1146.6 899.1 1144.8 897.3 1144.8 895.5Z" fill="#868686"/>
<path d="M1205.1 839.7C1205.1 837.9 1206.9 836.1 1208.7 836.1H1232.1C1240.2 836.1 1245.6 838.8 1250.1 842.4C1252.8 845.1 1254.6 849.6 1254.6 855C1254.6 865.8 1247.4 871.2 1237.5 873L1252.8 892.8C1253.7 893.7 1253.7 894.6 1253.7 895.5C1253.7 897.3 1251.9 899.1 1250.1 899.1C1248.3 899.1 1247.4 898.2 1246.5 897.3L1228.5 873.9H1210.5V895.5C1210.5 897.3 1208.7 899.1 1206.9 899.1C1205.1 899.1 1203.3 897.3 1203.3 895.5V839.7H1205.1ZM1231.2 868.5C1240.2 868.5 1247.4 864 1247.4 855.9C1247.4 847.8 1241.1 843.3 1231.2 843.3H1211.4V868.5H1231.2Z" fill="#868686"/>
<path d="M1278.9 827.1C1278.9 829.8 1277.1 831.6 1274.4 831.6C1271.7 831.6 1269.9 829.8 1269.9 827.1V826.2C1269.9 823.5 1271.7 821.7 1274.4 821.7C1277.1 821.7 1278.9 823.5 1278.9 826.2V827.1ZM1270.8 838.8C1270.8 837 1272.6 835.2 1274.4 835.2C1276.2 835.2 1278 837 1278 838.8V895.5C1278 897.3 1276.2 899.1 1274.4 899.1C1272.6 899.1 1270.8 897.3 1270.8 895.5V838.8Z" fill="#868686"/>
<path d="M305.1 790.2L191.7 668.7L187.2 658.8H192.6C252.9 658.8 301.5 658.8 301.5 603.9C301.5 567.9 268.2 551.7 192.6 551.7H145.8V790.2H108V521.1H239.4C264.6 521.1 287.1 527.4 304.2 540C324 554.4 334.8 576 334.8 603C334.8 679.5 275.4 687.6 255.6 687.6L352.8 790.2H305.1Z" fill="#E20613"/>
<path d="M1258.2 790.2V712.8H1110.6L1038.6 790.2H973.8V556.2H859.5V790.2H817.2L620.1 567.9V790.2H360.9V521.1H554.4V556.2H398.7V638.1H554.4V673.2H398.7V755.1H582.3V521.1H623.7L821.7 743.4V521.1H1134V556.2H1012.5V762.3L1236.6 521.1H1296.9V790.2H1258.2ZM1258.2 673.2V553.5L1147.5 673.2H1258.2Z" fill="#E20613"/>
<path d="M108 699.3C36.9 725.4 0 743.4 0 743.4C0 743.4 36.9 721.8 108 689.4V699.3Z" fill="#E20613"/>
<path d="M107.1 666.9C62.1002 688.5 38.7002 696.6 38.7002 696.6C38.7002 696.6 61.2002 685.8 107.1 658.8V666.9Z" fill="#E20613"/>
<path d="M144.9 636.3C222.3 588.6 336.6 512.1 474.3 399.6C728.1 191.7 764.1 0 764.1 0C764.1 0 785.7 189.9 538.2 394.2C388.8 517.5 241.2 600.3 144.9 648V636.3Z" fill="#E3E3E2"/>
<path d="M804.6 132.3C804.6 132.3 855.9 312.3 957.6 382.5C1066.5 458.1 1179.9 468.9 1179.9 468.9C1179.9 468.9 1050.3 482.4 944.1 399.6C799.2 284.4 804.6 132.3 804.6 132.3Z" fill="#E3E3E2"/>
<path d="M145.8 673.2C306.9 604.8 586.8 510.3 921.6 510.3C1074.6 510.3 1180.8 526.5 1180.8 526.5V567.9C1180.8 567.9 1141.2 556.2 891 556.2C577.8 556.2 305.1 631.8 145.8 686.7V673.2Z" fill="#868686"/>
</g>
<defs>
<clipPath id="clip0_1_54">
<rect width="1296" height="900" fill="white"/>
</clipPath>
</defs>
</svg>
