<svg xmlns="http://www.w3.org/2000/svg" style="display:none" fill="none" stroke="currentColor" stroke-width="2" stroke-linecap="round" stroke-linejoin="round">
  <!-- RENTA YAPI icon sprite. Use: <svg class="rt-icon"><use href="sprite.svg#rt-NAME"/></svg> -->
  <symbol id="rt-search" viewBox="0 0 24 24"><title>Ara</title><circle cx="11" cy="11" r="7"/><path d="m21 21-4.3-4.3"/></symbol>
  <symbol id="rt-menu" viewBox="0 0 24 24"><title>Menü</title><path d="M3 6h18"/><path d="M3 12h18"/><path d="M3 18h18"/></symbol>
  <symbol id="rt-close" viewBox="0 0 24 24"><title>Kapat</title><path d="M6 6 18 18"/><path d="M18 6 6 18"/></symbol>
  <symbol id="rt-home" viewBox="0 0 24 24"><title>Anasayfa</title><path d="M3 10.5 12 3l9 7.5"/><path d="M5 9.5V20a1 1 0 0 0 1 1h12a1 1 0 0 0 1-1V9.5"/><path d="M9.5 21v-6h5v6"/></symbol>
  <symbol id="rt-arrow-left" viewBox="0 0 24 24"><title>Geri</title><path d="M19 12H5"/><path d="m11 6-6 6 6 6"/></symbol>
  <symbol id="rt-arrow-right" viewBox="0 0 24 24"><title>İleri</title><path d="M5 12h14"/><path d="m13 6 6 6-6 6"/></symbol>
  <symbol id="rt-arrow-up-right" viewBox="0 0 24 24"><title>Dış bağlantı yönü</title><path d="M7 17 17 7"/><path d="M8 7h9v9"/></symbol>
  <symbol id="rt-chevron-down" viewBox="0 0 24 24"><title>Aşağı</title><path d="m6 9 6 6 6-6"/></symbol>
  <symbol id="rt-chevron-up" viewBox="0 0 24 24"><title>Yukarı</title><path d="m6 15 6-6 6 6"/></symbol>
  <symbol id="rt-chevron-left" viewBox="0 0 24 24"><title>Sol</title><path d="m15 6-6 6 6 6"/></symbol>
  <symbol id="rt-chevron-right" viewBox="0 0 24 24"><title>Sağ</title><path d="m9 6 6 6-6 6"/></symbol>
  <symbol id="rt-plus" viewBox="0 0 24 24"><title>Ekle</title><path d="M12 5v14"/><path d="M5 12h14"/></symbol>
  <symbol id="rt-minus" viewBox="0 0 24 24"><title>Çıkar</title><path d="M5 12h14"/></symbol>
  <symbol id="rt-check" viewBox="0 0 24 24"><title>Onay</title><path d="M20 6 9 17l-5-5"/></symbol>
  <symbol id="rt-check-circle" viewBox="0 0 24 24"><title>Onaylandı</title><circle cx="12" cy="12" r="9"/><path d="m8.5 12 2.4 2.5 4.6-5"/></symbol>
  <symbol id="rt-x-circle" viewBox="0 0 24 24"><title>İptal</title><circle cx="12" cy="12" r="9"/><path d="m15 9-6 6"/><path d="m9 9 6 6"/></symbol>
  <symbol id="rt-filter" viewBox="0 0 24 24"><title>Filtrele</title><path d="M3 5h18l-7 8v6l-4-2v-4z"/></symbol>
  <symbol id="rt-sliders" viewBox="0 0 24 24"><title>Ayarlar</title><path d="M4 4v6"/><path d="M4 14v6"/><path d="M12 4v3"/><path d="M12 11v9"/><path d="M20 4v9"/><path d="M20 17v3"/><circle cx="4" cy="12" r="2"/><circle cx="12" cy="9" r="2"/><circle cx="20" cy="15" r="2"/></symbol>
  <symbol id="rt-grid" viewBox="0 0 24 24"><title>Izgara görünüm</title><rect x="3" y="3" width="7" height="7" rx="1"/><rect x="14" y="3" width="7" height="7" rx="1"/><rect x="3" y="14" width="7" height="7" rx="1"/><rect x="14" y="14" width="7" height="7" rx="1"/></symbol>
  <symbol id="rt-list" viewBox="0 0 24 24"><title>Liste görünüm</title><path d="M8 6h13"/><path d="M8 12h13"/><path d="M8 18h13"/><circle cx="3.6" cy="6" r="1.1" fill="currentColor" stroke="none"/><circle cx="3.6" cy="12" r="1.1" fill="currentColor" stroke="none"/><circle cx="3.6" cy="18" r="1.1" fill="currentColor" stroke="none"/></symbol>
  <symbol id="rt-more-horizontal" viewBox="0 0 24 24"><title>Daha fazla</title><circle cx="5" cy="12" r="1.5" fill="currentColor" stroke="none"/><circle cx="12" cy="12" r="1.5" fill="currentColor" stroke="none"/><circle cx="19" cy="12" r="1.5" fill="currentColor" stroke="none"/></symbol>
  <symbol id="rt-more-vertical" viewBox="0 0 24 24"><title>Seçenekler</title><circle cx="12" cy="5" r="1.5" fill="currentColor" stroke="none"/><circle cx="12" cy="12" r="1.5" fill="currentColor" stroke="none"/><circle cx="12" cy="19" r="1.5" fill="currentColor" stroke="none"/></symbol>
  <symbol id="rt-external-link" viewBox="0 0 24 24"><title>Dış bağlantı</title><path d="M14 4h6v6"/><path d="M20 4 11 13"/><path d="M18 14v4a2 2 0 0 1-2 2H6a2 2 0 0 1-2-2V8a2 2 0 0 1 2-2h4"/></symbol>
  <symbol id="rt-share" viewBox="0 0 24 24"><title>Paylaş</title><circle cx="6" cy="12" r="2.5"/><circle cx="18" cy="6" r="2.5"/><circle cx="18" cy="18" r="2.5"/><path d="m8.2 10.8 7.6-3.6"/><path d="m8.2 13.2 7.6 3.6"/></symbol>
  <symbol id="rt-heart" viewBox="0 0 24 24"><title>Kaydet</title><path d="M12 20.3 4.6 12.9a4.7 4.7 0 0 1 6.6-6.6l.8.8.8-.8a4.7 4.7 0 0 1 6.6 6.6z"/></symbol>
  <symbol id="rt-star" viewBox="0 0 24 24"><title>Puan</title><path d="m12 3 2.7 5.8 6.3.8-4.6 4.3 1.2 6.2L12 17.8 6.4 20.3l1.2-6.2L3 9.6l6.3-.8z"/></symbol>
  <symbol id="rt-play" viewBox="0 0 24 24"><title>Oynat</title><path d="M7 4.5v15l13-7.5z"/></symbol>
  <symbol id="rt-pause" viewBox="0 0 24 24"><title>Duraklat</title><path d="M8 4v16"/><path d="M16 4v16"/></symbol>
  <symbol id="rt-refresh" viewBox="0 0 24 24"><title>Yenile</title><path d="M3 12a9 9 0 0 1 15.5-6.3L21 8"/><path d="M21 3v5h-5"/><path d="M21 12a9 9 0 0 1-15.5 6.3L3 16"/><path d="M3 21v-5h5"/></symbol>
  <symbol id="rt-globe" viewBox="0 0 24 24"><title>Dil</title><circle cx="12" cy="12" r="9"/><path d="M3 12h18"/><path d="M12 3c2.5 2.5 3.8 5.7 3.8 9S14.5 18.5 12 21c-2.5-2.5-3.8-5.7-3.8-9S9.5 5.5 12 3z"/></symbol>
  <symbol id="rt-eye" viewBox="0 0 24 24"><title>Görüntüle</title><path d="M2 12s3.5-7 10-7 10 7 10 7-3.5 7-10 7-10-7-10-7z"/><circle cx="12" cy="12" r="3"/></symbol>
  <symbol id="rt-download" viewBox="0 0 24 24"><title>İndir</title><path d="M12 3v12"/><path d="m7 11 5 5 5-5"/><path d="M4 20h16"/></symbol>
  <symbol id="rt-info" viewBox="0 0 24 24"><title>Bilgi</title><circle cx="12" cy="12" r="9"/><path d="M12 11.5v4.5"/><circle cx="12" cy="8" r="1.1" fill="currentColor" stroke="none"/></symbol>
  <symbol id="rt-alert" viewBox="0 0 24 24"><title>Uyarı</title><path d="M12 4 2.5 20h19z"/><path d="M12 10v4"/><circle cx="12" cy="17" r="1.1" fill="currentColor" stroke="none"/></symbol>
  <symbol id="rt-phone" viewBox="0 0 24 24"><title>Telefon</title><path d="M6.5 3h3l1.5 4.5-2 1.5a11 11 0 0 0 5 5l1.5-2 4.5 1.5v3a2 2 0 0 1-2.2 2A16 16 0 0 1 4.5 5.2 2 2 0 0 1 6.5 3z"/></symbol>
  <symbol id="rt-phone-call" viewBox="0 0 24 24"><title>Bizi arayın</title><path d="M5.5 3h2.5l1.3 4-1.7 1.3a10 10 0 0 0 4.4 4.4L13.3 15l4 1.3V19a2 2 0 0 1-2.2 2A15 15 0 0 1 3.5 5.2 2 2 0 0 1 5.5 3z"/><path d="M15 3a5.5 5.5 0 0 1 5.5 5.5"/><path d="M15 6.5a2 2 0 0 1 2 2"/></symbol>
  <symbol id="rt-mail" viewBox="0 0 24 24"><title>E-posta</title><rect x="3" y="5" width="18" height="14" rx="2"/><path d="m4 7.5 8 5.5 8-5.5"/></symbol>
  <symbol id="rt-message" viewBox="0 0 24 24"><title>Mesaj</title><path d="M4 4h16a1 1 0 0 1 1 1v10a1 1 0 0 1-1 1H9l-5 4V5a1 1 0 0 1 1-1z"/><path d="M8 9h8"/><path d="M8 12h5"/></symbol>
  <symbol id="rt-send" viewBox="0 0 24 24"><title>Gönder</title><path d="M21 3 3 10l7 3 3 7z"/><path d="M21 3 10 13"/></symbol>
  <symbol id="rt-map-pin" viewBox="0 0 24 24"><title>Konum</title><path d="M12 21c4.5-4.5 7-8 7-11a7 7 0 0 0-14 0c0 3 2.5 6.5 7 11z"/><circle cx="12" cy="10" r="2.6"/></symbol>
  <symbol id="rt-navigation" viewBox="0 0 24 24"><title>Yol tarifi</title><path d="M21 4 3 11l7.5 2.5L13 21z"/></symbol>
  <symbol id="rt-map" viewBox="0 0 24 24"><title>Harita</title><path d="m9 4-6 2.5v13L9 17l6 2.5 6-2.5v-13L15 6.5z"/><path d="M9 4v13"/><path d="M15 6.5v13"/></symbol>
  <symbol id="rt-calculator" viewBox="0 0 24 24"><title>Fiyat hesapla</title><rect x="5" y="3" width="14" height="18" rx="2"/><rect x="8" y="6" width="8" height="3" rx="0.6"/><circle cx="9" cy="13" r="1" fill="currentColor" stroke="none"/><circle cx="12" cy="13" r="1" fill="currentColor" stroke="none"/><circle cx="15" cy="13" r="1" fill="currentColor" stroke="none"/><circle cx="9" cy="17" r="1" fill="currentColor" stroke="none"/><circle cx="12" cy="17" r="1" fill="currentColor" stroke="none"/><circle cx="15" cy="17" r="1" fill="currentColor" stroke="none"/></symbol>
  <symbol id="rt-quote" viewBox="0 0 24 24"><title>Teklif al</title><path d="M7 3h7l4 4v13a1 1 0 0 1-1 1H7a1 1 0 0 1-1-1V4a1 1 0 0 1 1-1z"/><path d="M14 3v4h4"/><path d="M9 12h6"/><path d="M9 15.5h4"/></symbol>
  <symbol id="rt-clipboard" viewBox="0 0 24 24"><title>Talep formu</title><rect x="5" y="4" width="14" height="17" rx="2"/><path d="M9 4a1 1 0 0 1 1-1h4a1 1 0 0 1 1 1v1H9z"/><path d="M9 11h6"/><path d="M9 15h4"/></symbol>
  <symbol id="rt-headset" viewBox="0 0 24 24"><title>Destek</title><path d="M5 13v-1a7 7 0 0 1 14 0v1"/><path d="M5 13h1.4a1 1 0 0 1 1 1v3a1 1 0 0 1-1 1H6a1.5 1.5 0 0 1-1.5-1.5V13z"/><path d="M19 13h-1.4a1 1 0 0 0-1 1v3a1 1 0 0 0 1 1H18a1.5 1.5 0 0 0 1.5-1.5V13z"/><path d="M19 17.5V19a2 2 0 0 1-2 2h-4"/></symbol>
  <symbol id="rt-card" viewBox="0 0 24 24"><title>Kartvizit</title><rect x="3" y="5" width="18" height="14" rx="2"/><circle cx="8.5" cy="11" r="2.2"/><path d="M5.5 16a3.4 3.4 0 0 1 6 0"/><path d="M14.5 10h4"/><path d="M14.5 13.5h3"/></symbol>
  <symbol id="rt-clock" viewBox="0 0 24 24"><title>Çalışma saatleri</title><circle cx="12" cy="12" r="9"/><path d="M12 7v5l3.5 2"/></symbol>
  <symbol id="rt-tent-event" viewBox="0 0 24 24"><title>Etkinlik çadırı</title><path d="M12 3v1.8"/><path d="M4 19v-8l8-6 8 6v8"/><path d="M4 11c2.4 1.4 5 2 8 2s5.6-.6 8-2"/><path d="M9.5 19v-3.2a2.5 2.5 0 0 1 5 0V19"/><path d="M3 19h18"/></symbol>
  <symbol id="rt-tent-warehouse" viewBox="0 0 24 24"><title>Depo / endüstriyel çadır</title><path d="M3 19v-9l9-4 9 4v9"/><path d="M3 10h18"/><path d="M8 19v-6h8v6"/><path d="M3 19h18"/></symbol>
  <symbol id="rt-tent-big" viewBox="0 0 24 24"><title>Büyük çadır (500m²+)</title><path d="M2 19v-9l5-3.5L12 10l5-3.5L22 10v9"/><path d="M7 6.5V19"/><path d="M17 6.5V19"/><path d="M2 19h20"/></symbol>
  <symbol id="rt-tent-pagoda" viewBox="0 0 24 24"><title>Pagoda çadır</title><path d="M12 3v1.6"/><path d="M6 10 12 5l6 5"/><path d="M4.5 10c1.6 1.2 3 1.2 4.5 0m6 0c1.5 1.2 2.9 1.2 4.5 0"/><path d="M7 10v9"/><path d="M17 10v9"/><path d="M3 19h18"/><path d="M10 19v-4h4v4"/></symbol>
  <symbol id="rt-tent-dome" viewBox="0 0 24 24"><title>Kubbeli çadır</title><path d="M3 19a9 8 0 0 1 18 0"/><path d="M3 19h18"/><path d="M12 11v8"/><path d="M4 15.5a13 13 0 0 0 16 0"/><path d="M8 11.6a9 8 0 0 0 0 7.4"/><path d="M16 11.6a9 8 0 0 1 0 7.4"/></symbol>
  <symbol id="rt-tent-ramadan" viewBox="0 0 24 24"><title>İftar / Ramazan çadırı</title><path d="M12 5.2a1.5 1.5 0 1 0 1.2 2.4A1.9 1.9 0 0 1 12 5.2z"/><path d="M5 19v-6l7-4 7 4v6"/><path d="M5 13q1.75 1.6 3.5 0t3.5 0 3.5 0 3.5 0"/><path d="M9.5 19v-3.5a2.5 2.5 0 0 1 5 0V19"/><path d="M3 19h18"/></symbol>
  <symbol id="rt-tent-fair" viewBox="0 0 24 24"><title>Fuar / stand çadırı</title><path d="M4 9 12 5l8 4"/><path d="M4 9v1.5h16V9"/><path d="M6 10.5V19"/><path d="M18 10.5V19"/><path d="M6 15v-1.5h12V15"/><path d="M6 15h12"/><path d="M3 19h18"/></symbol>
  <symbol id="rt-tent-arch" viewBox="0 0 24 24"><title>Kemer çatılı çadır</title><path d="M3 19v-4a9 6 0 0 1 18 0v4"/><path d="M3 19h18"/><path d="M8 19v-6"/><path d="M16 19v-6"/><path d="M8 13h8"/></symbol>
  <symbol id="rt-tent-hangar" viewBox="0 0 24 24"><title>Hangar çadır</title><path d="M2 19v-6a10 8 0 0 1 20 0v6"/><path d="M2 19h20"/><path d="M7 19v-5h10v5"/><path d="M12 14v5"/></symbol>
  <symbol id="rt-tent-transparent" viewBox="0 0 24 24"><title>Şeffaf / cam çadır</title><path d="M4 19v-8l8-5 8 5v8"/><path d="M4 11h16"/><path d="M3 19h18"/><path d="m9 15 1.6 1.6"/><path d="m13.5 13.5 1.6 1.6"/><path d="M16.5 8v1.6"/><path d="M15.7 8.8h1.6"/></symbol>
  <symbol id="rt-tent-double" viewBox="0 0 24 24"><title>İki katlı çadır</title><path d="M4 20V13h16v7"/><path d="M4 13V8h16v5"/><path d="M4 8 12 4l8 4"/><path d="M4 20h16"/><path d="M4 13h16"/><path d="M11 20v-4h2v4"/></symbol>
  <symbol id="rt-tent-canopy" viewBox="0 0 24 24"><title>Gölgelik / sundurma</title><path d="M3 8 12 4l9 4"/><path d="M3 8h18"/><path d="M6 8v11"/><path d="M18 8v11"/><path d="M3 19h18"/></symbol>
  <symbol id="rt-tent-gazebo" viewBox="0 0 24 24"><title>Bahçe çadırı / gazebo</title><path d="M12 3v1.5"/><path d="M5 10 12 5l7 5"/><path d="M5 10h14"/><path d="M7 10v9"/><path d="M17 10v9"/><path d="M3 19h18"/></symbol>
  <symbol id="rt-tent-corridor" viewBox="0 0 24 24"><title>Koridor / geçiş çadırı</title><path d="M3 20v-8a5 5 0 0 1 10 0v8"/><path d="M11 20v-8a5 5 0 0 1 10 0v8"/><path d="M3 20h18"/><path d="M3 13h18"/></symbol>
  <symbol id="rt-tent-polygon" viewBox="0 0 24 24"><title>Çokgen çadır</title><path d="m12 3 8 4.5v9L12 21l-8-4.5v-9z"/><path d="M12 3v18"/><path d="m4 7.5 8 4.5 8-4.5"/><path d="M4 16.5 12 12l8 4.5"/></symbol>
  <symbol id="rt-tent-cube" viewBox="0 0 24 24"><title>Küp / yapı çadırı</title><path d="M4 8 12 4l8 4-8 4z"/><path d="M4 8v8l8 4 8-4V8"/><path d="M12 12v8"/></symbol>
  <symbol id="rt-tent-stage" viewBox="0 0 24 24"><title>Sahne örtü çadırı</title><path d="M3 9 12 4l9 5"/><path d="M3 9h18"/><path d="M5 9v3"/><path d="M19 9v3"/><path d="M6 12h12"/><path d="M3 18v-2h18v2"/><path d="M3 18h18"/></symbol>
  <symbol id="rt-tent-container" viewBox="0 0 24 24"><title>Depolama / konteyner çadır</title><rect x="3" y="10" width="18" height="9" rx="1"/><path d="M3 10 6 5h12l3 5"/><path d="M7 10v9"/><path d="M11 10v9"/><path d="M15 10v9"/></symbol>
  <symbol id="rt-tent-pavilion" viewBox="0 0 24 24"><title>Tören pavyonu (çok tepeli)</title><path d="M2 19v-5l3.5-3L9 14l3-3 3 3 3.5-3L22 14v5"/><path d="M2 19h20"/><path d="M5.5 11V19"/><path d="M12 11V19"/><path d="M18.5 11V19"/></symbol>
  <symbol id="rt-tent-inflatable" viewBox="0 0 24 24"><title>Şişme çadır</title><path d="M3 19c-.5-7 4-12 9-12s9.5 5 9 12"/><path d="M3 19h18"/><path d="M12 7V4"/><circle cx="12" cy="3.2" r="1"/></symbol>
  <symbol id="rt-span-width" viewBox="0 0 24 24"><title>Açıklık / genişlik</title><path d="M4 8v8"/><path d="M20 8v8"/><path d="M4 12h16"/><path d="m7 9-3 3 3 3"/><path d="m17 9 3 3-3 3"/></symbol>
  <symbol id="rt-height" viewBox="0 0 24 24"><title>Yükseklik</title><path d="M8 4h8"/><path d="M8 20h8"/><path d="M12 4v16"/><path d="m9 7 3-3 3 3"/><path d="m9 17 3 3 3-3"/></symbol>
  <symbol id="rt-area" viewBox="0 0 24 24"><title>Alan / m²</title><rect x="4" y="4" width="16" height="16" rx="1.5"/><path d="M8 8v3"/><path d="M8 8h3"/><path d="M16 16v-3"/><path d="M16 16h-3"/></symbol>
  <symbol id="rt-snow-load" viewBox="0 0 24 24"><title>Kar yükü dayanımı</title><path d="M4 15 12 8l8 7"/><path d="M4 15h16"/><path d="M7 12.5q1.6-1.2 3 0t3 0 3 0"/><path d="M12 3v3"/><path d="m10.7 4.2 1.3 1 1.3-1"/></symbol>
  <symbol id="rt-wind" viewBox="0 0 24 24"><title>Rüzgar dayanımı</title><path d="M3 8h11a2.5 2.5 0 1 0-2.5-2.5"/><path d="M3 12h15a2.5 2.5 0 1 1-2.5 2.5"/><path d="M3 16h9"/></symbol>
  <symbol id="rt-fire-retardant" viewBox="0 0 24 24"><title>Yangına dayanıklı (B1)</title><path d="M12 3 5 5.5V11c0 4.5 3 7.5 7 9 4-1.5 7-4.5 7-9V5.5z"/><path d="M12 9c.9 1.4 2.1 2.2 2.1 3.7a2.1 2.1 0 0 1-4.2 0c0-.9.4-1.4.9-1.9.5.8 1.2.4 1.2-1.8z"/></symbol>
  <symbol id="rt-waterproof" viewBox="0 0 24 24"><title>Su geçirmez</title><path d="M12 3 5 5.5V11c0 4.5 3 7.5 7 9 4-1.5 7-4.5 7-9V5.5z"/><path d="M12 8c1.1 1.5 2.2 2.6 2.2 4.1a2.2 2.2 0 0 1-4.4 0C9.8 10.6 10.9 9.5 12 8z"/></symbol>
  <symbol id="rt-membrane" viewBox="0 0 24 24"><title>PVC membran</title><path d="M3 8q4.5-3 9 0t9 0"/><path d="M3 13q4.5-3 9 0t9 0"/><path d="M3 18q4.5-3 9 0t9 0"/></symbol>
  <symbol id="rt-frame" viewBox="0 0 24 24"><title>Alüminyum profil / truss</title><path d="M3 7h18"/><path d="M3 17h18"/><path d="m3 7 4 10"/><path d="m7 7-4 10"/><path d="m11 7 4 10"/><path d="m15 7-4 10"/><path d="m19 7 2 10"/></symbol>
  <symbol id="rt-modular" viewBox="0 0 24 24"><title>Modüler</title><rect x="3" y="3" width="8" height="8" rx="1"/><rect x="13" y="13" width="8" height="8" rx="1"/><path d="M11 7h4a2 2 0 0 1 2 2v4"/></symbol>
  <symbol id="rt-anchor" viewBox="0 0 24 24"><title>Ankraj / sabitleme</title><path d="M12 4v11"/><circle cx="12" cy="4" r="1.6"/><path d="M8 9h8"/><path d="M5 14a7 7 0 0 0 14 0"/><path d="M5 14H3.5"/><path d="M19 14h1.5"/></symbol>
  <symbol id="rt-ventilation" viewBox="0 0 24 24"><title>Havalandırma</title><circle cx="12" cy="12" r="9"/><path d="M12 12c0-3 1-5 3-5s1.7 3-1 5"/><path d="M12 12c3 0 5 1 5 3s-3 1.7-5-1"/><path d="M12 12c0 3-1 5-3 5s-1.7-3 1-5"/><path d="M12 12c-3 0-5-1-5-3s3-1.7 5 1"/><circle cx="12" cy="12" r="1" fill="currentColor" stroke="none"/></symbol>
  <symbol id="rt-glass" viewBox="0 0 24 24"><title>Cam cephe</title><rect x="4" y="4" width="16" height="16" rx="1"/><path d="M12 4v16"/><path d="M4 12h16"/><path d="m7 7 2 2"/><path d="m7 10 3 3"/></symbol>
  <symbol id="rt-gutter" viewBox="0 0 24 24"><title>Yağmur oluğu</title><path d="M4 8h16"/><path d="M4 8v2a2 2 0 0 0 2 2h12a2 2 0 0 0 2-2V8"/><path d="M8 16v2"/><path d="M12 16v3"/><path d="M16 16v2"/></symbol>
  <symbol id="rt-load" viewBox="0 0 24 24"><title>Taşıma kapasitesi</title><path d="M4 6h16"/><path d="M4 6v3"/><path d="M20 6v3"/><path d="M12 8v9"/><path d="m8 13 4 4 4-4"/></symbol>
  <symbol id="rt-weather" viewBox="0 0 24 24"><title>Her mevsim dayanıklı</title><circle cx="8" cy="9" r="3"/><path d="M8 3.5V5"/><path d="M3.5 9H5"/><path d="m4.9 5.9 1 1"/><path d="M13 14a3 3 0 0 1 0 6H7a2.5 2.5 0 0 1-.3-5A4 4 0 0 1 14.3 13.6"/></symbol>
  <symbol id="rt-temperature" viewBox="0 0 24 24"><title>İklimlendirme</title><path d="M14 14.8V5a2 2 0 1 0-4 0v9.8a4 4 0 1 0 4 0z"/><path d="M12 8v7"/><circle cx="12" cy="17.5" r="1.5" fill="currentColor" stroke="none"/></symbol>
  <symbol id="rt-expandable" viewBox="0 0 24 24"><title>Genişletilebilir</title><path d="M4 12h16"/><path d="m8 8-4 4 4 4"/><path d="m16 8 4 4-4 4"/><path d="M4 5h16"/><path d="M4 19h16"/></symbol>
  <symbol id="rt-roof-pitch" viewBox="0 0 24 24"><title>Çatı eğimi</title><path d="M4 18 20 6"/><path d="M4 18h16"/><path d="M8.5 18a6 6 0 0 1 1.7-4.2"/></symbol>
  <symbol id="rt-hvac" viewBox="0 0 24 24"><title>Klima / HVAC</title><rect x="3" y="5" width="18" height="7" rx="1.5"/><path d="M6 9h6"/><circle cx="16.5" cy="8.5" r="1"/><path d="M7 15c0 1.5-1 1.5-1 3"/><path d="M12 15c0 1.5-1 1.5-1 3"/><path d="M17 15c0 1.5-1 1.5-1 3"/></symbol>
  <symbol id="rt-heater" viewBox="0 0 24 24"><title>Isıtıcı</title><path d="M12 3c1.6 2.5 3 3.7 3 6a3 3 0 0 1-6 0c0-1 .4-1.8 1-2.5.5.8 1 .5 1-1.5z"/><path d="M7 20h10"/><path d="M9 20v-2"/><path d="M15 20v-2"/></symbol>
  <symbol id="rt-lighting" viewBox="0 0 24 24"><title>Aydınlatma</title><path d="M9 18h6"/><path d="M10 21h4"/><path d="M12 3a6 6 0 0 0-4 10.5c.8.7 1 1 1 2.5h6c0-1.5.2-1.8 1-2.5A6 6 0 0 0 12 3z"/></symbol>
  <symbol id="rt-flooring" viewBox="0 0 24 24"><title>Podyum / zemin</title><path d="M3 9 12 5l9 4-9 4z"/><path d="M3 9v4l9 4 9-4V9"/><path d="M7 11v4"/><path d="M12 13v4"/><path d="M17 11v4"/></symbol>
  <symbol id="rt-carpet" viewBox="0 0 24 24"><title>Halı</title><path d="M8 5h9a3 3 0 0 1 0 6H8"/><path d="M8 11v8h9"/><path d="M8 5a3 3 0 0 0 0 6"/><circle cx="17" cy="8" r="1.2"/></symbol>
  <symbol id="rt-door-glass" viewBox="0 0 24 24"><title>Cam kapı</title><rect x="6" y="3" width="12" height="18" rx="1"/><path d="M12 3v18"/><path d="M10.2 11v2"/><path d="M13.8 11v2"/><path d="m8 6 2 4"/></symbol>
  <symbol id="rt-door-sliding" viewBox="0 0 24 24"><title>Sürgülü kapı</title><rect x="4" y="4" width="16" height="16" rx="1"/><path d="M12 4v16"/><path d="m9 10-2 2 2 2"/><path d="m15 10 2 2-2 2"/></symbol>
  <symbol id="rt-window" viewBox="0 0 24 24"><title>Pencere</title><rect x="4" y="4" width="16" height="16" rx="1"/><path d="M12 4v16"/><path d="M4 12h16"/></symbol>
  <symbol id="rt-stage" viewBox="0 0 24 24"><title>Sahne</title><path d="M3 15h18"/><path d="M3 15v3h18v-3"/><path d="M6 15V9"/><path d="M18 15V9"/><path d="M6 9h12"/><path d="m9 9-2-3"/><path d="m15 9 2-3"/></symbol>
  <symbol id="rt-furniture" viewBox="0 0 24 24"><title>Mobilya</title><rect x="4" y="9" width="9" height="2.4" rx=".5"/><path d="M5.2 11.4v7"/><path d="M11.8 11.4v7"/><path d="M16 18.5v-4a3 3 0 0 1 3-3v7"/><path d="M16 14.5h3"/></symbol>
  <symbol id="rt-power" viewBox="0 0 24 24"><title>Elektrik / jeneratör</title><path d="M13 3 5 13h6l-2 8 8-11h-6z"/></symbol>
  <symbol id="rt-sound" viewBox="0 0 24 24"><title>Ses sistemi</title><path d="M4 9v6h4l5 4V5L8 9z"/><path d="M16 8a5 5 0 0 1 0 8"/><path d="M18.5 5.5a9 9 0 0 1 0 13"/></symbol>
  <symbol id="rt-truss" viewBox="0 0 24 24"><title>Askı / rigging truss</title><path d="M3 6h18"/><path d="M3 10h18"/><path d="m3 6 4 4"/><path d="m7 6-4 4"/><path d="m11 6 4 4"/><path d="m15 6-4 4"/><path d="m19 6 2 4"/><path d="M12 10v4"/><path d="M12 14a2 2 0 1 0 2 2"/></symbol>
  <symbol id="rt-partition" viewBox="0 0 24 24"><title>Bölme duvarı</title><path d="M3 5h18"/><path d="M3 19h18"/><path d="M7 7v10"/><path d="M12 7v10"/><path d="M17 7v10"/></symbol>
  <symbol id="rt-ramp" viewBox="0 0 24 24"><title>Rampa / erişim</title><path d="M4 18 20 8"/><path d="M4 18h16"/><path d="M20 8v10"/><circle cx="9" cy="9.5" r="1.8"/><path d="M9 11.3v3h3"/></symbol>
  <symbol id="rt-survey" viewBox="0 0 24 24"><title>Keşif</title><circle cx="10.5" cy="10.5" r="6.5"/><path d="m20 20-4-4"/><path d="M10.5 8a2 2 0 0 0-2 2c0 1.4 2 3 2 3s2-1.6 2-3a2 2 0 0 0-2-2z"/></symbol>
  <symbol id="rt-design" viewBox="0 0 24 24"><title>Proje / çizim</title><rect x="4" y="4" width="14" height="16" rx="1.5"/><path d="M7 8h8"/><path d="M7 12h5"/><path d="m16 16 4-4 2 2-4 4h-2z"/></symbol>
  <symbol id="rt-quote-approve" viewBox="0 0 24 24"><title>Teklif onayı</title><path d="M6 3h7l5 5v9a2 2 0 0 1-2 2H6a2 2 0 0 1-2-2V5a2 2 0 0 1 2-2z"/><path d="M13 3v5h5"/><path d="m8.5 13 2 2 4-4"/></symbol>
  <symbol id="rt-production" viewBox="0 0 24 24"><title>Üretim</title><path d="M4 20V11l5 3V11l5 3V8l6 4v8z"/><path d="M4 20h16"/><circle cx="14" cy="16.5" r="1" fill="currentColor" stroke="none"/></symbol>
  <symbol id="rt-delivery" viewBox="0 0 24 24"><title>Nakliye / teslimat</title><path d="M3 6h11v9H3z"/><path d="M14 9h4l3 3v3h-7z"/><circle cx="7" cy="17.5" r="1.8"/><circle cx="17" cy="17.5" r="1.8"/><path d="M3 15h11"/></symbol>
  <symbol id="rt-installation" viewBox="0 0 24 24"><title>Kurulum / montaj</title><path d="M14.4 6.6a3.5 3.5 0 0 0-4.6 4.2l-6 6 2 2 6-6a3.5 3.5 0 0 0 4.2-4.6l-2.2 2.2-1.6-1.6z"/></symbol>
  <symbol id="rt-rental" viewBox="0 0 24 24"><title>Kiralama</title><rect x="4" y="5" width="16" height="15" rx="2"/><path d="M4 9.5h16"/><path d="M8 3v3"/><path d="M16 3v3"/><path d="M9.5 15a3 3 0 0 1 5-1.2l1 1"/><path d="M15.5 12.5V15h-2.5"/></symbol>
  <symbol id="rt-handover" viewBox="0 0 24 24"><title>Anahtar teslim</title><circle cx="8" cy="8" r="4"/><path d="m10.8 10.8 7.2 7.2"/><path d="m15 15 2 2"/><path d="m17.5 17.5 2-2"/></symbol>
  <symbol id="rt-dismantle" viewBox="0 0 24 24"><title>Söküm</title><path d="M4 4h4v4"/><path d="M20 4h-4v4"/><path d="M4 20h4v-4"/><path d="M20 20h-4v-4"/><path d="m8 8 3 3"/><path d="m16 8-3 3"/><path d="m8 16 3-3"/><path d="m16 16-3-3"/></symbol>
  <symbol id="rt-maintenance" viewBox="0 0 24 24"><title>Bakım</title><circle cx="12" cy="12" r="3"/><path d="M12 3v2.5"/><path d="M12 18.5V21"/><path d="M3 12h2.5"/><path d="M18.5 12H21"/><path d="m5.6 5.6 1.8 1.8"/><path d="m16.6 16.6 1.8 1.8"/><path d="m18.4 5.6-1.8 1.8"/><path d="m7.4 16.6-1.8 1.8"/></symbol>
  <symbol id="rt-support" viewBox="0 0 24 24"><title>7/24 destek</title><circle cx="12" cy="12" r="9"/><circle cx="12" cy="12" r="4"/><path d="m5.5 5.5 3.7 3.7"/><path d="m18.5 5.5-3.7 3.7"/><path d="m5.5 18.5 3.7-3.7"/><path d="m18.5 18.5-3.7-3.7"/></symbol>
  <symbol id="rt-permit" viewBox="0 0 24 24"><title>İzin / ruhsat</title><path d="M6 3h9l3 3v15H6z"/><path d="M14 3v4h4"/><circle cx="12" cy="12.5" r="2.4"/><path d="M10.5 14.6 9 18.5l3-1.2 3 1.2-1.5-3.9"/></symbol>
  <symbol id="rt-inspection" viewBox="0 0 24 24"><title>Denetim / kontrol</title><rect x="5" y="4" width="14" height="17" rx="2"/><path d="M9 4a1 1 0 0 1 1-1h4a1 1 0 0 1 1 1v1H9z"/><path d="m9 13 2 2 4-4"/></symbol>
  <symbol id="rt-warranty" viewBox="0 0 24 24"><title>Garanti</title><path d="M12 3 5 5.5V11c0 4.5 3 7.5 7 9 4-1.5 7-4.5 7-9V5.5z"/><path d="m12 8 1.2 2.5 2.6.3-1.9 1.8.5 2.6L12 15.8l-2.4 1.2.5-2.6-1.9-1.8 2.6-.3z"/></symbol>
  <symbol id="rt-fair" viewBox="0 0 24 24"><title>Fuar</title><path d="M4 20V9h10v11"/><path d="M4 9 9 6l5 3"/><path d="M18 20V6"/><path d="M18 6l3 1-3 1.5"/></symbol>
  <symbol id="rt-festival" viewBox="0 0 24 24"><title>Festival</title><path d="M3 6q9 4 18 0"/><path d="m6 6.8-.6 3 2.6-2z"/><path d="m11.4 7.6-.6 3 2.6-2z"/><path d="m16.8 6.8-.6 3 2.6-2z"/><path d="M3 14q9 4 18 0"/><path d="m6 14.8-.6 3 2.6-2z"/><path d="m11.4 15.6-.6 3 2.6-2z"/><path d="m16.8 14.8-.6 3 2.6-2z"/></symbol>
  <symbol id="rt-wedding" viewBox="0 0 24 24"><title>Düğün</title><circle cx="9" cy="14" r="4.5"/><circle cx="15" cy="14" r="4.5"/><path d="m7 7 2 2 2-2"/><path d="m13 7 2 2 2-2"/></symbol>
  <symbol id="rt-corporate" viewBox="0 0 24 24"><title>Kurumsal etkinlik</title><path d="M4 20V5a1 1 0 0 1 1-1h7a1 1 0 0 1 1 1v15"/><path d="M13 10h6a1 1 0 0 1 1 1v9"/><path d="M3 20h18"/><path d="M7 8h.5"/><path d="M10 8h.5"/><path d="M7 12h.5"/><path d="M10 12h.5"/><path d="M16 13h.5"/><path d="M16 16h.5"/></symbol>
  <symbol id="rt-concert" viewBox="0 0 24 24"><title>Konser</title><path d="M9 18V6l10-2v12"/><circle cx="7" cy="18" r="2"/><circle cx="17" cy="16" r="2"/><path d="M9 9l10-2"/></symbol>
  <symbol id="rt-sports" viewBox="0 0 24 24"><title>Spor etkinliği</title><ellipse cx="12" cy="12" rx="9" ry="6"/><ellipse cx="12" cy="12" rx="4.4" ry="2.6"/><path d="M3.4 12h4.2"/><path d="M16.4 12h4.2"/></symbol>
  <symbol id="rt-exhibition" viewBox="0 0 24 24"><title>Sergi</title><rect x="4" y="4" width="16" height="13" rx="1"/><path d="m7 14 3-4 2 2 3-4 2 3"/><circle cx="8.5" cy="8" r="1"/><path d="M12 17v3"/><path d="M9 20h6"/></symbol>
  <symbol id="rt-ramadan" viewBox="0 0 24 24"><title>Ramazan / iftar</title><path d="M6 20v-9a6 6 0 0 1 12 0v9"/><path d="M4 20h16"/><path d="M12 5V3"/><path d="M12 3a1.4 1.4 0 1 0 1 2.3A1.8 1.8 0 0 1 12 3z"/><path d="M9.5 20v-4a2.5 2.5 0 0 1 5 0v4"/></symbol>
  <symbol id="rt-logistics" viewBox="0 0 24 24"><title>Lojistik / depo</title><path d="M3 20V9l9-4 9 4v11"/><path d="M3 20h18"/><rect x="8" y="13" width="8" height="7"/><path d="M12 13v7"/><path d="M8 16.5h8"/></symbol>
  <symbol id="rt-construction" viewBox="0 0 24 24"><title>Şantiye</title><path d="M4 17a8 8 0 0 1 16 0z"/><path d="M2.5 17h19"/><path d="M12 9V6a2 2 0 0 0-2-2"/><path d="M8.5 10.2V7"/></symbol>
  <symbol id="rt-industrial" viewBox="0 0 24 24"><title>Endüstri / fabrika</title><circle cx="9" cy="9.5" r="3.2"/><path d="M9 5v-1.5"/><path d="M9 15.5V14"/><path d="M4.7 9.5H3.2"/><path d="M14.8 9.5h-1.5"/><path d="m6 6.5-1-1"/><path d="m13 12.5-1-1"/><path d="m12 6.5 1-1"/><path d="m6 12.5-1 1"/><circle cx="16.5" cy="16" r="2.4"/><path d="M16.5 13v-1"/><path d="M16.5 20v-1"/><path d="M13.5 16h-1"/><path d="M20.5 16h-1"/></symbol>
  <symbol id="rt-agriculture" viewBox="0 0 24 24"><title>Tarım / sera</title><path d="M4 20V11l8-6 8 6v9"/><path d="M4 20h16"/><path d="M12 5v15"/><path d="M4 11h16"/><path d="M8 20v-5"/><path d="M16 20v-5"/></symbol>
  <symbol id="rt-military" viewBox="0 0 24 24"><title>Askeri / savunma</title><path d="M12 3 5 5.5V11c0 4.5 3 7.5 7 9 4-1.5 7-4.5 7-9V5.5z"/><path d="M12 8.5v6"/><path d="M9 11.5h6"/></symbol>
  <symbol id="rt-emergency" viewBox="0 0 24 24"><title>Afet / yardım</title><path d="M4 19 12 9l8 10"/><path d="M4 19h16"/><path d="M12 13v4"/><path d="M10 15h4"/></symbol>
  <symbol id="rt-aviation" viewBox="0 0 24 24"><title>Havacılık</title><path d="M12 3c1 0 1.5 1 1.5 3v3l6 4v2l-6-2v3l2 1.4v1.5L12 21l-3.5-1.6V18l2-1.4v-3l-6 2v-2l6-4V6c0-2 .5-3 1.5-3z"/></symbol>
  <symbol id="rt-automotive" viewBox="0 0 24 24"><title>Otomotiv / showroom</title><path d="M4 16v-3l2-4h12l2 4v3"/><path d="M3 16h18"/><circle cx="7.5" cy="16.5" r="1.8"/><circle cx="16.5" cy="16.5" r="1.8"/><path d="M6 9h12"/></symbol>
  <symbol id="rt-catering" viewBox="0 0 24 24"><title>Banket / ikram</title><path d="M6 3v6a2 2 0 0 0 2 2M8 3v18M10 3v6a2 2 0 0 1-2 2"/><path d="M17 3c-1.6 1-2.2 3.2-2.2 6.2s.6 4.8 2.2 4.8V3z"/><path d="M17 14v7"/></symbol>
  <symbol id="rt-education" viewBox="0 0 24 24"><title>Eğitim</title><path d="m3 9 9-4 9 4-9 4z"/><path d="M7 11v4a5 3 0 0 0 10 0v-4"/><path d="M21 9v5"/></symbol>
  <symbol id="rt-healthcare" viewBox="0 0 24 24"><title>Sahra sağlık</title><rect x="4" y="6" width="16" height="13" rx="2"/><path d="M12 9v7"/><path d="M8.5 12.5h7"/></symbol>
  <symbol id="rt-experience" viewBox="0 0 24 24"><title>16 yıl deneyim</title><circle cx="12" cy="9" r="5.5"/><path d="m8.5 13.4-1.5 6.6 5-2.7 5 2.7-1.5-6.6"/><path d="M12 6.5V9l1.7 1"/></symbol>
  <symbol id="rt-iso" viewBox="0 0 24 24"><title>ISO sertifikalı</title><rect x="4" y="4" width="13" height="16" rx="1.5"/><path d="M7 8h7"/><path d="M7 11h5"/><circle cx="15.5" cy="16" r="3"/><path d="M14 18l-.5 3 2-1 2 1-.5-3"/></symbol>
  <symbol id="rt-quality" viewBox="0 0 24 24"><title>CE / kalite belgeli</title><circle cx="12" cy="12" r="9"/><path d="m8 12 2.5 2.5L16 9"/></symbol>
  <symbol id="rt-fast-setup" viewBox="0 0 24 24"><title>Hızlı kurulum</title><circle cx="12" cy="13" r="7"/><path d="M12 13V9.5"/><path d="M10 3h4"/><path d="m18 7 1.3-1.3"/></symbol>
  <symbol id="rt-nationwide" viewBox="0 0 24 24"><title>Türkiye geneli</title><circle cx="6" cy="7" r="2"/><circle cx="18" cy="9" r="2"/><circle cx="12" cy="17.5" r="2"/><path d="m7.6 8.3 3 6.4"/><path d="m16.6 10.4-3 4.6"/><path d="M8 7.4l8 1"/></symbol>
  <symbol id="rt-custom" viewBox="0 0 24 24"><title>Özel üretim</title><path d="M4 20v-4L16 4l4 4L8 20z"/><path d="m14 6 4 4"/><path d="m9 15 1 1"/><path d="m12 12 1 1"/></symbol>
  <symbol id="rt-award" viewBox="0 0 24 24"><title>Ödül</title><path d="M8 4h8v4a4 4 0 0 1-8 0z"/><path d="M8 5H6a2 2 0 0 0 2 2"/><path d="M16 5h2a2 2 0 0 1-2 2"/><path d="M12 12v3"/><path d="M9.5 20a2.5 2.5 0 0 1 5 0z"/><path d="M9 20h6"/></symbol>
  <symbol id="rt-references" viewBox="0 0 24 24"><title>Referans markalar</title><path d="M4 20V8h6v12"/><path d="M14 20V4h6v16"/><path d="M3 20h18"/><path d="M6.5 11h1"/><path d="M6.5 14h1"/><path d="M16.5 8h1"/><path d="M16.5 12h1"/></symbol>
  <symbol id="rt-team" viewBox="0 0 24 24"><title>Uzman ekip</title><circle cx="9" cy="8" r="3"/><path d="M3.5 19a5.5 5.5 0 0 1 11 0"/><circle cx="17" cy="9" r="2.4"/><path d="M15 14.5a5 5 0 0 1 5.5 4.5"/></symbol>
  <symbol id="rt-safety" viewBox="0 0 24 24"><title>İş güvenliği</title><path d="M12 3 5 5.5V11c0 4.5 3 7.5 7 9 4-1.5 7-4.5 7-9V5.5z"/><path d="M9 12a3 3 0 0 1 6 0"/><circle cx="12" cy="9.5" r="1.4"/></symbol>
  <symbol id="rt-eco" viewBox="0 0 24 24"><title>Çevre dostu</title><path d="M5 19c0-8 6-14 14-14 0 8-6 14-14 14z"/><path d="M8 16c2-4 5-7 9-9"/></symbol>
  <symbol id="rt-export" viewBox="0 0 24 24"><title>Yurtdışı / ihracat</title><circle cx="11" cy="12" r="8"/><path d="M3 12h16"/><path d="M11 4a12 12 0 0 1 0 16"/><path d="M11 4a12 12 0 0 0 0 16"/><path d="m18 5 3-1-1 3"/></symbol>
  <symbol id="rt-projects" viewBox="0 0 24 24"><title>Tamamlanan projeler</title><path d="m12 3 9 5-9 5-9-5z"/><path d="m3 13 9 5 9-5"/></symbol>
  <symbol id="rt-turnkey" viewBox="0 0 24 24"><title>Anahtar teslim çözüm</title><path d="M14 3a5 5 0 0 0-4.6 7L3 16.4V21h4v-2h2v-2h2l.6-.6A5 5 0 1 0 14 3z"/><circle cx="15.5" cy="8.5" r="1.4"/></symbol>
  <symbol id="rt-article" viewBox="0 0 24 24"><title>Blog / makale</title><rect x="5" y="4" width="14" height="16" rx="1.5"/><path d="M8 8h8"/><path d="M8 12h8"/><path d="M8 16h5"/></symbol>
  <symbol id="rt-catalog" viewBox="0 0 24 24"><title>Katalog</title><path d="M12 6v14"/><path d="M12 6C10 4.5 6.5 4.5 4 5v13c2.5-.5 6-.5 8 1 2-1.5 5.5-1.5 8-1V5c-2.5-.5-6-.5-8 1z"/></symbol>
  <symbol id="rt-pdf" viewBox="0 0 24 24"><title>PDF indir</title><path d="M6 3h8l4 4v14H6z"/><path d="M14 3v4h4"/><path d="M12 11v6"/><path d="m9.5 14.5 2.5 2.5 2.5-2.5"/></symbol>
  <symbol id="rt-guide" viewBox="0 0 24 24"><title>Rehber</title><path d="M5 4h12a1 1 0 0 1 1 1v15a1 1 0 0 1-1 1H7a2 2 0 0 1-2-2z"/><path d="M11 4v7l2-1.5 2 1.5V4"/></symbol>
  <symbol id="rt-faq" viewBox="0 0 24 24"><title>Sık sorulan sorular</title><path d="M4 5h16v11H9l-5 4z"/><path d="M9.5 9a2.5 2.5 0 0 1 3 2.4c0 1-1 1.3-1 2.1"/><circle cx="11.5" cy="15.4" r=".9" fill="currentColor" stroke="none"/></symbol>
  <symbol id="rt-checklist" viewBox="0 0 24 24"><title>Kontrol listesi</title><path d="M9 6h11"/><path d="M9 12h11"/><path d="M9 18h11"/><path d="m3 6 1.4 1.4L7 5"/><path d="m3 12 1.4 1.4L7 11"/><rect x="3" y="16" width="3.4" height="3.4" rx=".5"/></symbol>
  <symbol id="rt-tag" viewBox="0 0 24 24"><title>Etiket</title><path d="M4 4h7l9 9-7 7-9-9z"/><circle cx="8" cy="8" r="1.4"/></symbol>
  <symbol id="rt-receipt" viewBox="0 0 24 24"><title>Fiyat / fatura</title><path d="M6 3h12v18l-2-1.5L14 21l-2-1.5L10 21l-2-1.5L6 21z"/><path d="M9 8h6"/><path d="M9 12h6"/></symbol>
  <symbol id="rt-ruler" viewBox="0 0 24 24"><title>Ölçü</title><rect x="3" y="9" width="18" height="6" rx="1"/><path d="M7 9v3"/><path d="M11 9v2"/><path d="M15 9v3"/><path d="M19 9v2"/></symbol>
  <symbol id="rt-gallery" viewBox="0 0 24 24"><title>Galeri</title><rect x="4" y="4" width="16" height="16" rx="2"/><circle cx="9" cy="9" r="1.6"/><path d="m5 17 4-4 3 3 3-3 4 4"/></symbol>
  <symbol id="rt-video" viewBox="0 0 24 24"><title>Video</title><rect x="3" y="6" width="12" height="12" rx="2"/><path d="m15 10 6-3v10l-6-3z"/></symbol>
  <symbol id="rt-news" viewBox="0 0 24 24"><title>Haber / basın</title><path d="M4 6h13v13a1 1 0 0 1-1 1H5a1 1 0 0 1-1-1z"/><path d="M17 8h2a1 1 0 0 1 1 1v9a1 1 0 0 1-2 0V6"/><path d="M7 9h7"/><path d="M7 13h4"/><path d="M7 16h4"/></symbol>
  <symbol id="rt-tip" viewBox="0 0 24 24"><title>İpucu / öneri</title><path d="M9 17h6"/><path d="M10 20h4"/><path d="M12 4a5 5 0 0 0-3 9c.6.5.8 1 .8 2h4.4c0-1 .2-1.5.8-2a5 5 0 0 0-3-9z"/><path d="M4 8h1"/><path d="M19 8h1"/><path d="m6 4.5.7.7"/><path d="m17.3 4.5-.7.7"/></symbol>
  <symbol id="rt-compare" viewBox="0 0 24 24"><title>Karşılaştırma</title><path d="M12 4v16"/><path d="M6 8h12"/><path d="M6 8 3 13a3 3 0 0 0 6 0z"/><path d="M18 8l3 5a3 3 0 0 1-6 0z"/><path d="M9 20h6"/></symbol>
  <symbol id="rt-logo" viewBox="0 0 24 24"><title>Renta işareti</title><path d="M4 20 12 6l8 14"/><path d="M4 20h16"/><path d="M9 20v-5a3 3 0 0 1 6 0v5"/></symbol>
  <symbol id="rt-facebook" viewBox="0 0 24 24"><title>Facebook</title><rect x="3" y="3" width="18" height="18" rx="4"/><path d="M14 8h1.6V5.5H14a2.6 2.6 0 0 0-2.6 2.6V10H10v2.6h1.4V19H14v-6.4h1.8l.5-2.6H14V8.4a.4.4 0 0 1 .4-.4z" fill="currentColor" stroke="none"/></symbol>
  <symbol id="rt-instagram" viewBox="0 0 24 24"><title>Instagram</title><rect x="3.5" y="3.5" width="17" height="17" rx="5"/><circle cx="12" cy="12" r="4"/><circle cx="16.7" cy="7.3" r="1.1" fill="currentColor" stroke="none"/></symbol>
  <symbol id="rt-linkedin" viewBox="0 0 24 24"><title>LinkedIn</title><rect x="3.5" y="3.5" width="17" height="17" rx="3"/><path d="M8 10.5v6"/><circle cx="8" cy="7.3" r="1.1" fill="currentColor" stroke="none"/><path d="M12 16.5v-3.2a2 2 0 0 1 4 0v3.2"/><path d="M12 10.5v6"/></symbol>
  <symbol id="rt-youtube" viewBox="0 0 24 24"><title>YouTube</title><rect x="3" y="6" width="18" height="12" rx="3.5"/><path d="m10 9.4 5 2.6-5 2.6z" fill="currentColor" stroke="none"/></symbol>
  <symbol id="rt-x-twitter" viewBox="0 0 24 24"><title>X (Twitter)</title><rect x="3.5" y="3.5" width="17" height="17" rx="4"/><path d="m7.5 7.5 9 9"/><path d="m16.5 7.5-9 9"/></symbol>
  <symbol id="rt-whatsapp" viewBox="0 0 24 24"><title>WhatsApp</title><path d="M3.5 20.5 5 16.2A8 8 0 1 1 8.2 19z"/><path d="M9 9.2c-.2 0-.5 0-.7.3-.2.3-.8.8-.8 1.9s.8 2.2.9 2.4c.1.1 1.6 2.5 3.9 3.4 1.9.7 2.3.6 2.7.5.4-.1 1.3-.5 1.5-1 .2-.5.2-1 .1-1-.1-.1-.3-.2-.5-.3l-1.4-.7c-.2-.1-.4-.1-.5.1l-.6.7c-.1.1-.3.2-.5.1-.6-.3-1.3-.5-2.1-1.4-.6-.7-1-1.5-1.1-1.7-.1-.2 0-.3.1-.4l.4-.5c.1-.1.2-.3.2-.4s0-.3 0-.4l-.6-1.4c-.2-.4-.3-.4-.5-.4z" fill="currentColor" stroke="none"/></symbol>
  <symbol id="rt-google" viewBox="0 0 24 24"><title>Google</title><path d="M21 12.2c0-.7-.1-1.3-.2-1.9H12v3.6h5.1a4.4 4.4 0 0 1-1.9 2.9v2.3h3A9 9 0 0 0 21 12.2z"/><path d="M12 21a9 9 0 0 0 6.2-2.3l-3-2.3a5.4 5.4 0 0 1-8.1-2.8H4v2.4A9 9 0 0 0 12 21z"/><path d="M7.1 13.6a5.4 5.4 0 0 1 0-3.4V7.8H4a9 9 0 0 0 0 8.2z"/><path d="M12 6.6a4.9 4.9 0 0 1 3.5 1.3l2.6-2.6A9 9 0 0 0 4 7.8l3.1 2.4A5.4 5.4 0 0 1 12 6.6z"/></symbol>
</svg>
